<?xml version="1.0" encoding="iso-8859-1"?>
<!-- Uploaded to: SVG Repo, www.svgrepo.com, Generator: SVG Repo Mixer Tools -->
<svg height="800px" width="800px" version="1.1" id="Layer_1" xmlns="http://www.w3.org/2000/svg" xmlns:xlink="http://www.w3.org/1999/xlink" 
	 viewBox="0 0 512.001 512.001" xml:space="preserve">
<g>
	<path style="fill:#FFF1CE;" d="M171.558,129.227l-53.93-53.93c14.237-17.493,13.208-43.267-3.085-59.563
		c-17.393-17.391-45.589-17.393-62.982,0c-7.263,7.263-11.447,16.413-12.646,25.871c-9.46,1.199-18.61,5.384-25.872,12.647
		c-17.393,17.393-17.389,45.589,0,62.981c16.293,16.291,42.068,17.323,59.56,3.084l95.799,95.261l47.242-43.894L171.558,129.227z"/>
	<path style="fill:#FFF1CE;" d="M171.558,129.227l-53.93-53.93c14.237-17.493,13.208-43.267-3.085-59.563
		c-17.393-17.391-45.589-17.393-62.982,0c-7.263,7.263-11.447,16.413-12.646,25.871c-9.46,1.199-18.61,5.384-25.872,12.647
		c-17.393,17.393-17.389,45.589,0,62.981c16.293,16.291,42.068,17.323,59.56,3.084l71.384,71.383l45.024-45.022L171.558,129.227z"/>
</g>
<path style="fill:#EFDBAF;" d="M166.161,176.835c-2.142,0-4.283-0.817-5.918-2.452l-61.469-61.468c-3.27-3.269-3.27-8.568,0-11.836
	c3.269-3.269,8.568-3.269,11.836,0l61.469,61.468c3.269,3.269,3.269,8.568,0,11.836
	C170.446,176.018,168.304,176.835,166.161,176.835z"/>
<path style="fill:#D78C33;" d="M229.677,460.873c64.586,64.585,169.303,64.583,233.884,0c64.588-64.589,64.586-169.298,0-233.886
	c-47.439-47.439-116.517-59.988-175.449-37.733l-51.533-42.575c-13.138-13.136-34.433-13.136-47.568,0l-39.642,39.64
	c-13.135,13.136-13.137,34.433,0,47.572l42.574,51.53C169.692,344.36,182.238,413.434,229.677,460.873z"/>
<g>
	<path style="fill:#EA9D49;" d="M468.523,382.352c-0.644,0-1.298-0.075-1.952-0.231c-4.495-1.075-7.27-5.59-6.196-10.085
		c0.892-3.733,1.603-7.551,2.113-11.347c0.615-4.58,4.816-7.79,9.41-7.18c4.581,0.616,7.796,4.829,7.18,9.411
		c-0.584,4.352-1.398,8.728-2.419,13.005C475.739,379.767,472.308,382.352,468.523,382.352z"/>
	<path style="fill:#EA9D49;" d="M471.672,346.267c-4.398,0-8.087-3.433-8.347-7.882c-2.749-47.091-34.8-88.382-79.755-102.747
		c-4.404-1.407-6.832-6.117-5.425-10.52c1.407-4.404,6.118-6.833,10.52-5.425c25.151,8.037,47.112,23.316,63.507,44.183
		c16.659,21.202,26.293,46.63,27.864,73.534c0.27,4.616-3.252,8.575-7.867,8.844C472.002,346.262,471.836,346.267,471.672,346.267z"
		/>
</g>
<path style="opacity:0.15;fill:#202020;enable-background:new    ;" d="M328.804,504.891c-28.918-6.804-56.361-21.469-78.911-44.018
	c-46.255-46.255-59.355-113.081-39.36-171.017c0.052-0.183,0.105-0.367,0.17-0.57c2.593-8.094-1.64-13.097-1.64-13.097l0,0
	l-36.274-43.604c-13.136-13.138-15.338-26.906-2.204-40.043l44.465-44.376c3.658-3.659,7.952-6.296,12.525-7.917
	c-12.552-6.142-28.132-4.005-38.564,6.429l-39.642,39.64c-13.135,13.136-13.137,34.433,0,47.572l42.574,51.53
	c-22.251,58.937-9.705,128.012,37.734,175.452c33.209,33.209,77.027,49.336,120.543,48.395
	C343.012,508.286,335.858,506.823,328.804,504.891z"/>
<path style="fill:#EFDBAF;" d="M166.161,176.835c-2.142,0-4.283-0.817-5.918-2.452l-61.469-61.468c-3.27-3.269-3.27-8.568,0-11.836
	c3.269-3.269,8.568-3.269,11.836,0l61.469,61.468c3.269,3.269,3.269,8.568,0,11.836
	C170.446,176.018,168.304,176.835,166.161,176.835z"/>
<path style="fill:#D78C33;" d="M229.677,460.873c64.586,64.585,169.303,64.583,233.884,0c64.588-64.589,64.586-169.298,0-233.886
	c-47.439-47.439-116.517-59.988-175.449-37.733l-51.533-42.575c-13.138-13.136-34.433-13.136-47.568,0l-39.642,39.64
	c-13.135,13.136-13.137,34.433,0,47.572l42.574,51.53C169.692,344.36,182.238,413.434,229.677,460.873z"/>
<g>
	<path style="fill:#EA9D49;" d="M468.523,382.352c-0.644,0-1.298-0.075-1.952-0.231c-4.495-1.075-7.27-5.59-6.196-10.085
		c0.892-3.733,1.603-7.551,2.113-11.347c0.615-4.58,4.816-7.79,9.41-7.18c4.581,0.616,7.796,4.829,7.18,9.411
		c-0.584,4.352-1.398,8.728-2.419,13.005C475.739,379.767,472.308,382.352,468.523,382.352z"/>
	<path style="fill:#EA9D49;" d="M471.672,346.267c-4.398,0-8.087-3.433-8.347-7.882c-2.749-47.091-34.8-88.382-79.755-102.747
		c-4.404-1.407-6.832-6.117-5.425-10.52c1.407-4.404,6.118-6.833,10.52-5.425c25.151,8.037,47.112,23.316,63.507,44.183
		c16.659,21.202,26.293,46.63,27.864,73.534c0.27,4.616-3.252,8.575-7.867,8.844C472.002,346.262,471.836,346.267,471.672,346.267z"
		/>
</g>
<path style="opacity:0.15;fill:#202020;enable-background:new    ;" d="M247.766,464.915
	c-48.271-48.271-60.679-118.784-37.299-178.53c0.037-0.117,0.057-0.214,0.107-0.348c1.382-3.682,0.254-6.015-0.439-6.993
	l-0.44-0.529l-0.003-0.003h0.001l-35.944-43.312c-15.106-18.193-17.865-30.432-4.731-43.569l44.403-43.836
	c3.781-3.782,8.241-6.458,12.986-8.061c-12.341-5.465-27.284-3.17-37.398,6.945l-39.642,39.64
	c-13.135,13.136-13.137,34.433,0,47.572l42.574,51.53c-22.251,58.937-9.705,128.012,37.734,175.451
	c25.032,25.032,56.092,40.353,88.507,45.98C292.406,499.237,268.109,485.258,247.766,464.915z"/>
</svg>