<svg xmlns="http://www.w3.org/2000/svg" xmlns:xlink="http://www.w3.org/1999/xlink" version="1.1" x="0px" y="0px" viewBox="0 0 24 30" style="enable-background:new 0 0 24 24;" xml:space="preserve"><path d="M17.5625,22c-0.1660156,0-0.3325195-0.0410156-0.4838867-0.125L12,19.0673828L6.9213867,21.875  c-0.3354492,0.1865234-0.7460938,0.1621094-1.0600586-0.0576172c-0.3129883-0.2207031-0.4726563-0.6005859-0.4106445-0.9785156  l0.980957-6.0146484l-4.1474609-4.2509766c-0.2617188-0.2685547-0.3515625-0.6601563-0.2324219-1.015625  s0.4267578-0.6142578,0.7973633-0.6708984l5.690918-0.8701172l2.5546875-5.4414063C11.2597656,2.2236328,11.6123047,2,12,2  s0.7402344,0.2236328,0.9052734,0.5751953l2.5546875,5.4414063l5.690918,0.8701172  c0.3706055,0.0566406,0.6782227,0.3154297,0.7973633,0.6708984s0.0292969,0.7470703-0.2324219,1.015625l-4.1474609,4.2509766  l0.980957,6.0146484c0.0620117,0.3779297-0.0976563,0.7578125-0.4106445,0.9785156C17.9663086,21.9384766,17.7646484,22,17.5625,22z  "/><text x="0" y="39" fill="#000000" font-size="5px" font-weight="bold" font-family="'Helvetica Neue', Helvetica, Arial-Unicode, Arial, Sans-serif">Created by Rahmat Hidayat</text><text x="0" y="44" fill="#000000" font-size="5px" font-weight="bold" font-family="'Helvetica Neue', Helvetica, Arial-Unicode, Arial, Sans-serif">from the Noun Project</text></svg>