<?xml version="1.0" encoding="iso-8859-1"?>
<!-- Uploaded to: SVG Repo, www.svgrepo.com, Generator: SVG Repo Mixer Tools -->
<svg height="800px" width="800px" version="1.1" id="Layer_1" xmlns="http://www.w3.org/2000/svg" xmlns:xlink="http://www.w3.org/1999/xlink" 
	 viewBox="0 0 375.573 375.573" xml:space="preserve">
<g transform="translate(18 13.543)">
	<path style="fill:#FFE63C;" d="M169.586,3.243l62.8,102.8l117.2,27.6l-78.4,91.6l9.6,120l-111.2-46.4l-110.8,46.4l9.6-120
		l-78.4-91.6l117.2-27.6L169.586,3.243z"/>
	<path style="fill:#FDD72E;" d="M205.586,180.043l-36-160.8l62.8,86.8l117.2,27.6l-78.4,91.6l9.6,120l-111.2-46.4L205.586,180.043z"
		/>
	<path style="fill:#C39314;" d="M280.786,353.243c-1.2,0-2-0.4-3.2-0.8l-108-45.2l-107.6,45.2c-2.4,1.2-5.6,0.8-7.6-0.8
		c-2.4-1.6-3.6-4.4-3.2-7.2l9.2-116.8l-76.4-88.8c-2-2-2.4-5.2-1.6-7.6c0.8-2.8,3.2-4.8,5.6-5.2l114-27.2l60.8-99.6
		c1.6-2.4,4-4,6.8-4l0,0c2.8,0,5.2,1.6,6.8,4l61.2,100l114,26.8c2.8,0.8,4.8,2.8,5.6,5.2c0.8,2.8,0.4,5.6-1.6,7.6l-76,89.2
		l9.2,116.8c0.4,2.8-1.2,5.6-3.2,7.2C283.986,352.843,282.386,353.243,280.786,353.243z M169.586,290.843c1.2,0,2,0.4,3.2,0.8
		l99.2,41.2l-8.4-106.8c0-2,0.4-4.4,2-6l70-81.6l-104.4-24.4c-2-0.4-4-1.6-4.8-3.6l-56-91.6l-56.4,91.2c-1.2,2-2.8,3.2-5.2,3.6
		l-104,24.8l70,81.6c1.2,1.6,2,3.6,2,6l-8.4,106.8l98.8-41.2C167.586,291.243,168.386,290.843,169.586,290.843z M107.186,106.043
		L107.186,106.043L107.186,106.043z"/>
	<g>
		<path style="fill:#C39215;" d="M70.786,182.443c-2.4,0-4.4-0.8-6-2.8l-8-9.6c-2.8-3.2-2.4-8.4,1.2-11.2s8.4-2.4,11.2,1.2l8,9.6
			c2.8,3.2,2.4,8.4-1.2,11.2C74.386,181.643,72.786,182.443,70.786,182.443z"/>
		<path style="fill:#C39215;" d="M100.386,271.243c-0.4,0-0.4,0-0.8,0c-4.4-0.4-7.6-4.4-7.2-8.8l2-25.2c1.2-13.6-3.6-27.2-12.4-38.4
			l-2.4-2.8c-2.8-3.2-2.4-8.4,0.8-11.2c3.2-2.8,8.4-2.4,11.2,0.8l2.4,2.8c12,14,17.6,32,16.4,50l-2,25.2
			C107.986,268.043,104.386,271.243,100.386,271.243z"/>
	</g>
</g>
</svg>